<svg version="1.2" xmlns="http://www.w3.org/2000/svg" viewBox="0 0 1469 699" width="1469" height="699">
	<title>LOGO_ITMC</title>
	<style>
		.s0 { fill: #ec6d29 } 
		.s1 { fill: #ec6d28 } 
		.s2 { fill: #289dd6 } 
		.s3 { fill: #299ed7 } 
		.s4 { fill: #269dd6 } 
		.s5 { fill: #ed7331 } 
		.s6 { fill: #ed702d } 
		.s7 { fill: #30a1d8 } 
		.s8 { fill: #31a1d8 } 
		.s9 { fill: #33a2d9 } 
		.s10 { fill: #2c9fd7 } 
		.s11 { fill: #32a2d8 } 
		.s12 { fill: #2ea0d8 } 
		.s13 { fill: #37a4d9 } 
	</style>
	<g id="Layer 1">
		<path id="&lt;Path&gt;" class="s0" d="m706.3 262.8c-1.8 14.9-3.6 28.9-5.3 42.9q-6.8 56.2-13.5 112.5-5.3 43.9-10.5 87.8c-0.7 6.1-2 7.6-8 7.9-7.5 0.4-15 0.8-22.5 0.9-5 0.1-6-1.2-5.1-6q16.1-91.2 32.3-182.3c6-33.9 12.1-67.8 18.1-101.7 0.7-3.9 0.4-7.6-1-11.3-2.2-5.8-4.2-11.6-6.1-17.4-2-6-0.8-8 5.2-9.1 11-2.2 22.1-3 33.2-3.8 7.3-0.5 9.3 0.9 11.9 7.9q11 29.7 21.9 59.4 34.7 94.6 69.4 189.2c0.6 1.7 1.3 3.4 2.4 6 2.7-6.5 5.2-12.3 7.6-18 28.5-67.4 56.9-134.8 85.7-202.1 3-7.2 2.3-13.9 1.6-21-0.3-3.3-1-6.6-1.4-9.9-0.5-4.3 1.2-7 5.7-7.8 11.7-2 23.4-3.4 35.2-3.7 6.2-0.2 8.2 1.7 8.9 7.7 5.7 49.6 11.3 99.2 17 148.8 5.9 50.6 11.7 101.2 17.6 151.8q0.7 6.2 1.4 12.5c0.5 4.6-1.7 7.2-6.3 7.9-12.2 1.8-24.4 3-36.8 3-4.4 0-6.7-1.7-7.2-6.3-2.8-26-5.7-52-8.7-78q-5.7-50.8-11.4-101.7c-2.2-19.5-4.4-39-6.6-58.6-0.1-1.4 0.2-3-1-4.4-1.8 0.7-1.8 2.5-2.4 3.9-31.2 78.7-62.4 157.4-93.5 236.1-2.2 5.6-5.3 8.5-11.3 8.4-5.5-0.1-11 0.2-16.5 0.6-4.9 0.4-7.1-2.2-8.7-6.5-7.4-20.6-15.1-41.2-22.6-61.8q-32.7-89.2-65.4-178.5c-0.6-1.6-0.8-3.5-3.3-5.3z"/>
		<path id="&lt;Path&gt;" class="s1" d="m1011.8 148c-43.7-47.4-97-74-161.3-76.7-45.4-1.8-87.8 9.5-126.3 33.8-48.8 30.9-81.8 74.1-98.6 129.4-16.6 54.9-13 109 9.5 162-2.7 0.5-3.3-1.2-4.2-2.4-31.1-40-48.2-85-50.1-135.8-2.2-59.2 14.6-112.1 52.3-157.8 37.6-45.6 85.9-73.1 144.7-81.7 16.3-2.4 32.7-3 48.8-1.5 47.4 4.5 89.9 21.6 126.5 52.6 23.9 20.3 43.1 44.3 57.1 72.4 0.6 1.2 1.2 2.4 1.7 3.6 0.2 0.4 0 1-0.1 2.1z"/>
		<path id="&lt;Path&gt;" class="s2" d="m1184.4 519.2c-35.6-0.4-69.7-7-99.8-26.8-40.6-26.7-64.4-64.8-71.6-112.8-4.7-30.9-2.9-61.5 8.6-90.9 16.9-43.1 48.3-71.3 91.1-87.6 23.4-8.9 47.7-13.1 72.6-14.3 31.9-1.6 63.1 2.6 94.2 9.1 6.7 1.4 8 3 8.3 9.6 1.1 19.1 2.2 38.2 3.1 57.4 0.3 6.6-0.1 6.8-10 7.6-4.9 0.4-5-3.1-5.6-6.5-3.4-20.4-15.8-34-33.7-43-20.3-10.3-42-13-64.5-11.5-18.9 1.2-36.9 5.4-53.2 15.1-26.8 15.9-43.1 39.5-50.2 69.7-9.6 40.8-7.7 80.5 9.6 119.1 19 42.6 52.3 66.4 97.5 74.6 35.8 6.5 70.3 1.2 104.1-10.8q2.3-0.8 4.7-1.7c6.1-2.2 7-1.8 9.2 4.2 0.4 1 0.7 1.9 1.1 2.8 3.9 8.6 4 8.7-4.5 12.6-25.3 11.7-52.3 17.6-79.6 21.8-10.4 1.6-20.9 2.5-31.4 2.3z"/>
		<path id="&lt;Path&gt;" class="s3" d="m412.8 193.8c47.7 0 95.3 0 142.9-0.1 4.6 0 7.2 1.5 7.6 6.4 1.4 19.3 2.4 38.6 2.7 57.9 0.1 3.3 0.1 6.7 0.3 10 0.2 2.9-1.3 4.1-4 4.7-9 1.9-10.8 0.9-13.3-7.9-2.5-8.9-5.1-17.9-9.3-26.3-5.7-11.7-15.1-18.4-28-19.7-22.9-2.5-45.9-0.9-68.9-1.2-2.4 0-3.3 1.2-3.2 3.4 0.1 1.5 0.1 3 0.1 4.5q0 136-0.1 272c0 1.8 0.1 3.6-0.1 5.5-0.6 6.1-2.2 7.9-8.1 8.8-12.2 1.8-24.5 3.1-36.8 3-9 0-10.4-1.4-10.4-10.4q0-106.8 0-213.5c0-21.5 0.1-43 0.2-64.5 0-9.1-0.2-9-9.2-8.8-17.9 0.3-35.7 0.1-53.5 0.5-22.1 0.5-33.6 8.8-41.5 29.5-2.5 6.6-4.9 13.4-6.1 20.5-1 5.9-4.9 5.2-9 4.8-4.3-0.4-8.1-1.5-7.9-6.9 0.2-5.1 0.7-10.3 1-15.4 1-16.3 1.7-32.6 3.6-48.8 0.9-7.6 1.8-8.3 9.6-8.1 47.1 1.4 94.3 0.9 141.4 0.1z"/>
		<path id="&lt;Path&gt;" class="s4" d="m219.2 402.5q0 45.9 0 91.9c0 7.6-1.1 9.1-8.4 10.2-11.7 1.8-23.5 3-35.3 3-7 0-8.4-1.6-8.4-8.6q-0.1-72 0-143.9c0-5.2-0.2-10.3-1.6-15.3-2.2-8.2-7.4-12.3-16.3-12.7-3.8-0.2-7.7-0.2-11.5 0.4-4.3 0.7-5.7-1.3-6.2-5-0.6-3.9-1.7-7.9 3.8-9.2 8.7-2 17.4-4.1 26.2-6.1 14.8-3.2 29.7-5.9 44.7-7.8 9.7-1.3 13 1.6 13 11.7q0 45.7 0 91.4z"/>
		<path id="&lt;Path&gt;" class="s2" d="m193.1 187c23.7-0.2 36.6 22.6 24.8 43.3-1.5 2.6-3.4 5.1-6 6.6-12.5 7.2-25.5 8.6-38.4 1.6-10.7-5.8-15.4-17.9-12.7-29.9 3.1-13.4 11.5-20.3 26.4-21.6 1.9-0.1 4 0 5.9 0z"/>
		<path id="&lt;Path&gt;" class="s5" d="m728.5 556.5c60.6 0 120 0 180.5 0-3.9 5.2-7.2 9.8-10.7 14.4-1.1 1.4-2.7 0.9-4.2 0.9-50.1 0.1-100.2 0-150.4 0.1-3 0-5-1-6.6-3.4-2.5-3.8-5.3-7.5-8.6-12z"/>
		<path id="&lt;Path&gt;" class="s6" d="m749.3 584.9c46.4 0 92.1 0 138.8 0-4 5.5-7.6 10.5-11.2 15.5-1.1 1.3-2.7 1.2-4.2 1.2q-53.9 0-107.8 0c-1.7 0-3.4 0.1-4.5-1.5-3.6-4.8-7.2-9.8-11.1-15.2z"/>
		<path id="&lt;Path&gt;" class="s5" d="m770.8 614.3c32.1 0 63.5 0 96 0-3.8 5.1-7 9.7-10.5 14-1.1 1.5-3.3 1.3-5.1 1.3-21.7 0-43.3 0-65 0-3.3 0-5.6-1.1-7.4-3.9-2.4-3.8-5.1-7.3-8-11.4z"/>
		<path id="&lt;Path&gt;" class="s7" d="m198.1 685c1.3 0.2 1.7-0.7 1.8-1.8 1.8-12.6 6.2-24.9 6.2-37.8 0-2.1 1-2.4 2.6-2.7 2.5-0.5 4.3 0 5.3 2.5 2 5.3 4 10.6 6.1 15.9 1.7 4.4 3.5 8.9 5.2 13.1 1.5 0.3 1.8-0.6 2.1-1.3 3.9-9.2 9-17.8 11.4-27.6 0.6-2.4 2.2-2.6 4.1-2.8 2.6-0.2 3.3 1.7 3.5 3.8q1.8 14.4 3.6 28.8c0.3 2.3 0.6 4.6 0.9 6.9 0.3 3-0.6 4.7-4.1 4.9-3.4 0.3-3.5-1.5-3.8-4.2-0.8-8.4-1.9-16.8-2.9-25.3-2.4 0.2-2.3 2.1-2.8 3.3-3.2 7.2-6.2 14.4-9.1 21.6-0.8 1.9-1.3 3.8-3.9 3.9-2.9 0.2-3.5-2-4.3-4-3.3-8.6-6.6-17.3-11.1-25.8-1 7.8-2 15.6-2.9 23.5-0.7 6.7-2 7.5-7.9 5 0 0 0 0.1 0 0.1z"/>
		<path id="&lt;Path&gt;" class="s8" d="m1118 675.8c4.8-10.7 9.7-19.9 12.8-29.8 0.7-2.5 1.6-3.2 3.8-3.4 2.7-0.3 3.5 1.3 3.8 3.5 1.5 12.1 3 24.1 4.4 36.2 0.3 3-1 4.5-4.3 4.6-3.6 0.2-3.3-2-3.5-4.4-0.6-8-1.7-16-4.7-24-2.9 6.6-5.5 13.4-8.7 19.8-1.5 3-0.9 8.4-5.6 8.3-4.3-0.1-3.8-5.2-5.1-8.2-3.1-6.7-5.7-13.7-8.9-21.7-2.2 5.7-2.6 10.5-3.1 15.3-0.4 4-0.7 8-1.7 11.8-0.5 1.8-1 3.3-3.3 3-2.6-0.3-1.9-2.4-1.7-3.8 1.7-9.7 3.6-19.3 5.3-29 0.4-2.2 0.7-4.6 0.7-6.9 0-2-0.8-4.1 2.3-4.4 2.8-0.3 4.7 0.4 5.8 3.3 3.1 8.3 6.3 16.5 9.5 24.7 0.5 1.2 1.1 2.4 2.2 5.1z"/>
		<path id="&lt;Path&gt;" class="s7" d="m908.1 656.3c-1 8.6-2.1 17-3.1 25.5-0.2 1.3-0.3 2.7-1.3 3.7-1 1.1-2.5 1-3.7 0.5-1.6-0.6-0.8-2-0.6-3.1 2-10.8 4-21.5 6-32.3 0.2-1.2 0.6-2.4 0.4-3.5-0.5-2-1.4-3.8 1.8-4.4 2.9-0.6 4.8 0.2 5.9 3.1q3.8 10 7.6 20c1.2 3.1 2.5 6.1 4.2 10.2 4.3-10.3 9.8-19 12.2-29 0.6-2.8 1.6-4.6 4.8-4.5 3.2 0.2 3.4 2.5 3.6 4.9 1.4 11.3 2.8 22.5 4 33.7 0.3 2.1 1 4.8-1.9 5.5-2.9 0.8-5.4 0.6-5.8-3.6-0.6-8.3-1.7-16.5-2.7-25.5-2.7 2.1-3.2 4.6-4.2 6.7-2.8 6.2-5.4 12.5-8.1 18.8-0.7 1.7-1.5 3.3-3.8 3.3-2.3-0.1-3-1.6-3.7-3.4q-4.7-12.1-9.5-24.2c-0.3-0.8-0.1-2.1-2.1-2.4z"/>
		<path id="&lt;Compound Path&gt;" fill-rule="evenodd" class="s9" d="m1187.1 665.6q0-7 0-13.9c0-2 0.2-4.1-2.5-4.8-0.8-0.2-1.5-0.8-1.3-1.8 0.2-0.9 1.2-1 2-1.1 8.6-1.3 17.2-2 25.8 0.1 9.7 2.3 14.7 8.3 15.2 17.7 0.5 11-4.5 19.3-13.5 22.7-6.5 2.5-13.3 2.6-20.1 2.3-3.8-0.2-5.6-2.5-5.6-6.2-0.1-5 0-10 0-15zm7.7-0.5q0 0 0 0c0 4.3 0.3 8.6 0 12.9-0.4 4.5 1.8 5.4 5.6 5.3 10.9-0.2 18.5-8.4 17.9-19.5-0.6-11-8.8-18-19.7-17.2-2.7 0.2-3.8 1.3-3.8 4 0 4.8 0 9.6 0 14.5z"/>
		<path id="&lt;Path&gt;" class="s10" d="m578.2 645.8c2.7-2.3 5.1-2.3 7.3-2.6 2.9-0.5 4.4 0.9 4.5 3.8 0 2.5 0 5 0 7.5 0 0.7 0.1 1.4 0.2 2 0.7 5.1 2.4 5.6 14.5 5.2 4.1-0.1 6.2-1.7 6-6-0.1-2.6 0.1-5.3 0-8-0.1-3.1 1.7-4 4.3-4.2 2.9-0.1 3.3 1.8 3.3 4 0 11.5 0 23-0.1 34.5 0 2.6-0.6 4.9-4.1 4.9-3.8 0-3.3-2.6-3.3-4.8-0.2-4.2-0.2-8.4-0.1-12.5 0.2-3.1-1.1-4.1-4.1-4-4.1 0.1-8.3 0.1-12.5 0-2.9-0.1-4.2 1-4.1 4.1 0.2 4.1 0 8.3 0 12.5 0.1 2.9-0.8 4.7-4.2 4.7-3.5 0-3.1-2.4-3.1-4.5 0-9.3-0.1-18.6 0-28 0.1-3.6 0.3-7.1-4.5-8.6z"/>
		<path id="&lt;Compound Path&gt;" fill-rule="evenodd" class="s8" d="m1428.4 645.4c10.2-2.8 19.8-4.6 29 0.4 5 2.8 5.3 9.9 1.1 14.4-1 1.1-2.2 1.9-3.7 3.2 3.6 2.4 7.9 4 8.2 9.1 0.6 9-4.9 13.1-13.4 14.2-15.7 2.1-16.6 0.9-16.6-14.7 0-5.8 0.1-11.7 0-17.5 0-3.5 1.4-7.7-4.6-9.1zm12.4 29q-0.1 0-0.2 0c0 1.8-0.1 3.6 0 5.4 0.1 1.6 0.6 3.1 2.5 3.2 3 0.1 6 0.1 8.6-1.8 3.4-2.5 4-5.9 2.6-9.7-1.6-3.8-6.8-6.4-11.3-5.5-4.4 0.9-1.5 4.6-2.2 6.9-0.1 0.5 0 1 0 1.5zm-0.2-20.5c0.6 2.3-1.2 6.5 2.6 8.6 2.6 1.5 5.3-0.5 7.3-2 3.3-2.4 3.6-6 1.9-9.5-1.6-3.4-4.9-5-8.7-4.7-4.4 0.4-2.7 4.1-3.1 7.6z"/>
		<path id="&lt;Compound Path&gt;" fill-rule="evenodd" class="s8" d="m773.5 686.8c-14 1.7-21.4-10.2-21.4-22.3 0-12.2 9.6-21.8 21.9-21.8 14.1-0.1 22.4 8 22.7 21.5 0.3 12.5-9.6 24.5-23.2 22.6zm14.6-20.6c0.3-4.9-0.6-9.4-3.2-13.5-3-4.6-7.3-6.6-12.8-6-5.1 0.5-8.1 3.7-9.8 8.2-3.2 7.9-2.3 15.7 2.2 22.8 5.1 8.1 17 7.4 21.4-1 1.8-3.3 2.5-6.8 2.2-10.5z"/>
		<path id="&lt;Compound Path&gt;" fill-rule="evenodd" class="s8" d="m133.3 686.8c-12.4 0-21.3-8.8-21.3-21.1 0.1-14 8.9-22.9 22.7-23 13.6 0 21.5 8 21.7 21.9 0.1 11.9-8 23.4-23.1 22.2zm15-21.5c0.1-4.2-1.3-8.4-3.5-12.4-2.6-4.4-6.5-6.5-11.6-6.3-5.3 0.2-9.1 2.8-10.9 7.5-2.8 7.6-2.6 15.4 1.4 22.6 2.7 4.8 7 7.1 12.5 6.6 5.5-0.5 8.7-3.8 10.5-8.8 1-2.8 1.6-5.7 1.6-9.2z"/>
		<path id="&lt;Compound Path&gt;" fill-rule="evenodd" class="s8" d="m372.7 686.8c-12.4 0-21.7-8.8-21.7-20.7 0-14.4 8.7-23.2 22.9-23.2 13.5 0.1 22 8.3 21.8 21.2-0.2 12.1-7.4 23.8-23 22.7zm14.6-20.5c0.1-5-0.9-9.6-3.7-13.8-2.9-4.4-7.1-6.3-12.3-5.8-5.2 0.6-8.5 3.6-10.2 8.4-2.2 6-2 12.1 0 18.1 2.3 6.8 7.4 10.5 13.7 10.1 6-0.3 10.4-4.5 11.9-11.6 0.4-1.7 0.4-3.6 0.6-5.4z"/>
		<path id="&lt;Path&gt;" class="s11" d="m633.9 656.7q0 10.9 0 21.9c0 1.8 0.1 3.7-0.1 5.5-0.2 2-1.3 2.8-3.3 2.8-2.6-0.1-2.4-1.8-2.3-3.5q0.4-15.5 0.8-30.9c0.1-1.9 0.3-3.7-1-5.3-0.9-1.1-2.5-2.4-0.8-3.8 1.4-1.1 3.2-1.6 5.2-1 2.6 0.9 3.8 3.2 5.3 5.1 6.1 7.9 12.2 15.9 18.3 23.8 0.6 0.8 1.1 2 2.8 2.3 0.7-7.5-0.6-14.9-0.6-22.2 0-1.5 0-3-0.1-4.5 0-2.3 1.1-3.6 3.3-3.5 2.2 0.1 2.5 1.8 2.5 3.6q-0.5 18.4-1 36.9c0 1.3 0.1 2.8-1.8 2.9-1.8 0.2-3.2-0.1-4.4-1.7-4-5.5-8.2-10.9-12.3-16.4q-4.7-6.3-9.5-12.5-0.5 0.2-1 0.5z"/>
		<path id="&lt;Compound Path&gt;" fill-rule="evenodd" class="s7" d="m692.7 686.8c-12.7 0-22-8.9-22-21.1 0-14 8.7-22.8 22.7-22.7 13.8 0 21.3 7.8 21.7 21.6 0.3 10.7-8.6 24.2-22.4 22.2zm14.1-22.7c0-2.5-0.6-6.9-3.1-10.9-4.3-7-13.6-8.8-19.4-3.9-8.2 7.1-6.4 27.1 3.1 32.5 1.1 0.6 2.4 1 3.7 1.2 9.6 1.6 15.7-5 15.7-18.9z"/>
		<path id="&lt;Path&gt;" class="s9" d="m198.1 685c0 0 0-0.1 0-0.1-3.7 3.3-8.4 2.8-10.8-1-1.7-2.8-2.3-5.9-3.1-9-1.1-4.5-2.9-8.2-8.5-8.1-1.1 0-2-0.4-2-1.6-0.1-1.7 1.5-1.4 2.5-1.6 6.2-1.5 8.4-4.1 8.2-9.4-0.1-3.2-1.7-5.3-4.5-6.6-5.5-2.6-8-0.9-8 5.1 0.1 9.2 0 18.4 0 27.5 0 1 0.1 2-0.1 3-0.4 2.5-1.6 3.7-4.4 3.7-2.9 0-3.2-2.1-3.2-4 0-9.4 0.2-18.7 0.1-28 0-3 1.5-6.7-3.2-8.4-1.7-0.6-0.3-2.1 0.8-2.3 8.7-1.6 17.6-3 26 1.1 5.9 2.8 6.7 10.6 1.8 15.7-1.3 1.3-2.9 2.3-4.5 3.5 4.2 2.4 6 6.3 7 10.5 0.9 4.1 2.7 7.4 5.9 10z"/>
		<path id="&lt;Path&gt;" class="s12" d="m44.2 656.4q0 11.2 0 22.3 0 2.8-0.1 5.5c-0.1 2.2-1.4 2.7-3.4 2.7-2.4-0.1-2-1.6-2-3.1 0.2-9.2 0.3-18.3 0.6-27.5 0-3.6 0.7-7.3-1.8-10.5-1.3-1.9 0-2.7 1.8-3 3.5-0.6 5.9 0.8 8 3.6 6.9 9.2 13.9 18.2 21.4 28.1 0-9.3 0-17.5 0-25.7 0-1-0.2-2-0.1-3 0.3-1.7 1.6-2.4 3.3-2.4 1.6 0.1 2.2 1.2 2.2 2.7q-0.4 19.2-0.8 38.4c0 1-0.1 2.1-1.4 2.3-1.9 0.2-3.5 0.1-4.8-1.7-4.6-6.3-9.4-12.6-14.1-18.8q-3.9-5.1-7.8-10.3-0.5 0.2-1 0.4z"/>
		<path id="&lt;Path&gt;" class="s11" d="m432.5 674.3c0-8.5 0-16 0-23.4 0-1.4-0.1-2.7-0.1-4-0.1-2.3 1-3.5 3.2-3.5 2.3 0.1 2.4 1.8 2.4 3.6-0.3 10.5-0.5 21-0.8 31.4 0 1.4 0 2.7-0.2 4-0.2 1.5 1.1 3.6-1.2 4.3-2.4 0.7-4-0.4-5.4-2.4-5.2-7.2-10.5-14.2-15.9-21.2-1.7-2.2-3.3-4.5-6.2-6.3-1.1 3-0.5 6-0.5 8.8q0.1 8.8 0.3 17.5c0 2.3-0.5 3.9-3.4 3.8-2.9-0.1-2.3-2.3-2.3-4 0.2-10.1 0.5-20.2 0.7-30.4 0.1-1.8 0.4-3.6-0.9-5.3-0.9-1.1-2.3-2.5-0.6-3.8 1.5-1.1 3.2-1.7 5.2-0.9 2.3 1 3.6 3 5 4.8 6.7 8.8 13.5 17.6 20.7 27z"/>
		<path id="&lt;Path&gt;" class="s7" d="m1422.1 665.3q0 8.5 0 17c0 1.5 0.4 3.2-1.7 3.7-1.6 0.4-3.5 1.3-4.6-0.3-1.8-2.7-3.6-1.6-5.6-0.8-3.3 1.2-6.6 2.1-10.2 2-7.8-0.2-11.8-4-11.9-12-0.1-7.3 0-14.7 0-22-0.1-2.4 0.4-5-3-6-1.8-0.5-1.3-2.1 0-2.4 2.9-0.7 6-1.9 8.8-0.8 2.9 1.1 1.8 4.3 1.9 6.7 0.1 7.5 0 14.9 0 22.4 0 3.8 1.1 7.1 5 8.5 4.3 1.5 8.6 0.6 12.4-1.8 1.7-1.1 1.4-3.5 1.4-5.5 0-8.4 0.1-16.7 0-25 0-3.1 0.7-5.4 4.2-5.5 3.8-0.1 3.4 2.9 3.4 5.3 0.1 5.5 0.1 11 0.1 16.5q-0.1 0-0.2 0z"/>
		<path id="&lt;Path&gt;" class="s11" d="m992.6 665.1c0 5.5 0.1 11 0 16.5-0.1 4.8-2.8 6.4-6.6 3.5-1.9-1.4-3.2-1.1-4.9-0.3-3.1 1.3-6.2 2.2-9.6 2.1-9-0.2-13.3-4.5-13.1-13.5q0.2-10 0.2-20c0-2.6 0.6-5.5-3-6.5-1-0.3-1.3-1.4-0.4-1.9 2.6-1.6 5.7-1.8 8.6-1.5 3 0.3 2.2 2.9 2.2 4.8 0 7.7 0 15.3 0 23 0 3.9 0.5 7.7 4.7 9.6 4.6 2.1 8.8 0.8 12.9-1.2 2-1 1.5-2.8 1.5-4.4q0-13.3 0-26.5c0-2.1 0-4.2 2.5-4.9 3-0.8 5.2-0.3 5.1 3.7-0.2 5.8-0.1 11.7-0.1 17.5z"/>
		<path id="&lt;Path&gt;" class="s8" d="m829.1 667.5c2.5-1.8 5.1-1.2 7.5-1.4 2.5-0.2 3.7 1.1 3.7 3.6 0 4.1-0.1 8.3 0 12.4 0.1 2.9-1.8 4-3.9 4.2-6.8 0.6-13.6 1.8-20.2-0.8-11-4.2-15.5-11.7-14.4-23.3 0.9-9.7 7.3-16.3 18-18.6 4.8-1.1 9.7-0.9 14.4-0.2 3.8 0.5 6.6 4.9 6 8.5-0.1 0.8-0.2 1.8-1.2 2-0.5 0-1.4-0.3-1.6-0.7-2-3.8-4.8-6.4-9.3-6.5-4.2-0.2-8.4-0.1-12 2.4-5.8 4-8.2 14.4-5.1 22.3 2.9 7.4 10.9 12.4 18.7 11.7 1.5-0.2 2.8-0.3 3.3-2.3 1-4.6-0.4-10-3.9-13.3z"/>
		<path id="&lt;Path&gt;" class="s13" d="m505.1 666.9c0-4.3 0.1-8.6 0-12.9 0-2.5 0.9-5.3-3-6.4-1.9-0.5-1.1-2.2 0.6-2.5 8.8-1.4 17.6-1.5 26.4-0.5 3.1 0.3 4.6 6.4 2.4 8.6-1.7 1.6-2.3-0.4-3-1.2-3.2-3.7-7.2-5.3-12-4.9-2.2 0.1-3.8 1-3.6 3.7q0.1 0.5 0 1c-0.3 10.7-0.3 10.6 10.2 10.3 2 0 5-0.9 4.8 2.6-0.2 3-2.9 2-4.7 2-10.4-0.2-10.2-0.2-10.4 10.1 0 4.2 1.3 5.5 5.4 5.4 5.4-0.2 10.9 0.5 13.2-6.1 0.2-0.4 1.1-0.7 1.7-0.7 0.8 0 0.9 0.8 1 1.4 1.1 5.6-2.1 9.4-7.7 9.3-5.3 0-10.6-0.2-16 0-3.8 0.1-5.5-1.2-5.3-5.2 0.2-4.6 0-9.3 0-14z"/>
		<path id="&lt;Compound Path&gt;" fill-rule="evenodd" class="s8" d="m1282 686.9c-0.7 0.1-2-0.3-2.7-2-0.5-1.3-1.2-2.7-1.8-4.1-4.2-9.9-5.3-10.5-16.1-9.9-2.4 0.2-3.6 1-4.3 3.2-1.1 3.3-2.5 6.6-3.5 9.9-0.8 2.7-2.6 3.6-4.9 2.6-2.2-0.9-0.6-2.9 0-4.2 4.1-10 8.4-19.9 12.6-29.8 0.8-2 1.7-4 2.2-6.1 0.4-1.8 0.1-3.7 2.8-3.9 2.6-0.1 4.5 0.5 5.6 3.2 3 7.9 6.1 15.8 9.2 23.6 1.6 4.2 3.3 8.4 5 12.5 1.3 3.2 0.2 4.8-4.1 5zm-16.1-35.6c-1.4 3.5-2.3 5.6-3.1 7.7-3.4 9-3.4 8.9 6.1 8.2 2.2-0.1 3.1-0.7 2.2-3-1.6-3.7-3.1-7.5-5.2-12.9z"/>
		<path id="&lt;Path&gt;" class="s7" d="m1151.9 667.3c0-4.2 0.1-8.3 0-12.5 0-2.8 0.4-5.5-3-7.2-2.4-1.2-0.5-2.3 1.1-2.7 4.7-1.1 9.6-0.8 14.4-0.8q3.2 0 6.5 0c7.3 0 7.5 0.1 7.4 7.4 0 1.1 0.1 2.1-1.1 2.4-1.2 0.3-1.8-0.7-2.1-1.7-0.4-2.4-1.8-3.9-4.2-4.3-3.4-0.5-7.4-2.6-10 0.3-3 3.4-1.7 8.2-1.3 12.5 0.2 2.1 2 2.3 3.9 2.1q3.9-0.5 7.9-0.7c1.8-0.1 2.9 0.9 2.7 2.7-0.1 1.8-1.5 2-2.9 2-2.3-0.1-4.7 0.1-7-0.2-4.1-0.6-5 1.3-5 5.1 0.1 11.2 0.9 12 12.2 10.4 3.1-0.5 4.5-2.5 5.8-5 0.4-0.8 0.9-2 2.1-1.8 1.5 0.4 1.1 1.7 1.1 2.9-0.3 6.5-1.7 7.8-8.2 7.8-5.3 0-10.6-0.1-15.9 0-3.2 0.1-4.6-0.9-4.4-4.2 0.2-4.8 0-9.7 0-14.5z"/>
		<path id="&lt;Compound Path&gt;" fill-rule="evenodd" class="s8" d="m289.5 686.9c-1.4 0.3-2.5-0.5-3.2-2.4-0.7-2-1.6-4-2.4-6-3.1-7.6-6.8-9.4-15-7.7-2.6 0.6-3.9 2.3-4.9 4.5-1.2 2.8-2.4 5.5-3.3 8.4-0.7 2.4-2.1 4-4.6 3-2.7-1-0.8-3.1-0.2-4.5 4.3-10.3 8.7-20.5 13.1-30.7 0.5-1.4 1.2-2.8 1.6-4.2 0.4-2-0.3-4.5 3-4.7 3.3-0.2 4.7 1.4 5.8 4.2 3.8 10 7.8 19.8 11.7 29.7 0.8 1.8 1.5 3.7 2.2 5.5 1.4 3.3 0.1 4.7-3.8 4.9zm-16.5-35.8c-1.9 5-3.5 8.8-4.8 12.6-0.8 2.6 0.1 4.2 3.1 4.1q2.5-0.1 4.9-0.3c2.5-0.2 3-1.3 1.9-3.6-1.6-3.7-3-7.6-5.1-12.8z"/>
		<path id="&lt;Path&gt;" class="s7" d="m573.4 653.8c-1.9 0.2-2.5-1.4-3.4-2.5-3.5-4.3-7.9-5.7-13.3-4.5-5.5 1.3-9.2 4.5-10.8 9.9-5 16 6.6 28.7 23 25.4 1.9-0.3 5-2.6 5.7 0.1 0.9 3.1-3 2.9-4.9 3.4-13.7 3.4-24.2 1-30.2-9.4-7.6-13.3-0.7-28.9 14.2-32.5 4.3-1 8.6-0.9 12.9-0.5 7.6 0.8 8.8 2.8 6.8 10.6z"/>
		<path id="&lt;Path&gt;" class="s11" d="m1332 686.8c-12.5 1.6-22.9-9.5-23.1-20.6-0.4-13.3 7.6-22.2 21.3-23.2 3.6-0.2 7.3-0.2 10.9 0.6 4.6 1 6.6 4.6 4.9 8.9-0.5 1.3-1.4 2.3-2.3 0.6-2.1-4.1-5.1-6.4-9.8-6.5-4.1-0.1-8 0.3-11.3 2.9-6.1 4.8-7.6 16.7-3 24.4q7.1 11.9 23 7.8c1.4-0.3 3.4-2 4.2 0.3 0.8 2.6-2 2.4-3.5 3.1-3.7 1.8-7.6 2-11.3 1.7z"/>
		<path id="&lt;Path&gt;" class="s13" d="m1047.9 667.3c0-4.5 0.1-9 0-13.5 0-2.4 1.2-5.6-2.9-6.2-3.7-0.5-7-0.1-9 3.6-0.4 0.7-0.5 1.6-0.9 2.3-0.6 1.1-1.9 1.5-2.4 0.5-1.4-2.7-0.2-5.5 0.1-8.2 0.3-2 2-2.2 3.5-2.1 10.5 0.4 20.9 0.7 31.4-0.2 2.4-0.2 3.1 1.4 3.4 3.4 0.4 2.5 1.1 5-0.5 7.2-0.6 0.8-1.5 0-2-0.7-0.8-1.1-1.4-2.3-2.2-3.3-2.3-2.8-5.4-3.2-8.6-2.4-3.4 0.9-2.1 3.8-2.1 5.9-0.1 8.8 0 17.6-0.1 26.4 0 1.5 0 3-0.5 4.4-0.7 2.4-2.7 2.5-4.8 2.5-2.7-0.1-2.2-2.1-2.2-3.6-0.1-5.4 0-10.7 0-16q-0.1 0-0.2 0z"/>
		<path id="&lt;Path&gt;" class="s13" d="m480.4 643.8c4.7 0 9.3 0 14 0 1.8 0 4.1-0.6 4.6 1.7 0.6 2.7 1.5 5.7 0 8.2-1 1.8-2.3 0.2-2.6-1.1-0.7-2.7-2.7-3.7-4.9-4.5-6-2.1-7.8-0.8-7.8 5.6 0 8.9 0 17.9 0 26.9 0 3 0.5 6.5-4.2 6.2-4.6-0.2-3.3-3.8-3.3-6.3-0.1-8.8 0-17.6 0-26.5 0-2.3 1.2-5.5-2.4-6.1-3.5-0.5-7.4-1-9.6 3.1-0.7 1.3-0.4 4-2.7 3.3-1.9-0.6-0.8-2.9-0.9-4.5-0.4-5.1 1.8-6.6 6.8-6 4.3 0.6 8.7 0.1 13 0.1q0 0 0-0.1z"/>
		<path id="&lt;Path&gt;" class="s13" d="m84.2 667.4q0-7 0-14c0-2.3 0.3-4.7-2.8-5.6-0.8-0.2-1.5-0.9-1.1-1.8 0.3-0.5 1-0.9 1.6-1 8.4-1.6 16.9-1.2 25.4-0.5 3.3 0.3 4.8 5.8 2.7 8.5-0.8 1.2-1.8 1.1-2.2-0.1-2.2-7-8.3-6.1-12.8-5-6.9 1.9-1.9 8.4-3.2 12.6-0.8 2.7 0.9 3.9 3.7 3.5 2.2-0.3 4.3-0.3 6.5-0.4 1.9 0 4.4-0.4 4.3 2.7-0.1 2.8-2.6 1.9-4.3 2-10.4 0.2-10.4 0.2-10.3 10.7 0.1 1.5 0.3 3 0 4.5-0.6 2.4-2.2 3.6-4.8 3.4-2.6-0.2-2.7-2.1-2.7-4-0.1-5.1 0-10.3 0-15.5z"/>
		<path id="&lt;Path&gt;" class="s8" d="m314.1 666.4c0 5-0.1 10 0 14.9 0 3.3-1 5.8-4.8 5.5-3.5-0.3-2.6-3.1-2.7-5.3-0.1-9.1-0.5-18.2 0-27.4 0.2-2.4 1.2-6-2.6-6.5-3.7-0.5-7.9-0.7-9.8 3.9-0.5 1.1-0.4 3.1-2.2 2.7-1.6-0.4-0.9-2.2-1-3.5-0.1-6.4 0.4-6.8 6.6-6.8 9.3 0 18.6-0.1 28-0.2 1.7 0 3.4 0 3.9 2.1 0.6 2.6 1.2 5.5-0.3 7.7-1.1 1.8-2.2-0.3-2.7-1.3-1.9-3.4-4.5-5.3-8.5-5.1-2.7 0.2-4.2 1.1-4 4.3 0.3 5 0.1 10 0.1 15z"/>
		<path id="&lt;Path&gt;" class="s7" d="m863.8 662c2.7-5.4 5-10 7.2-14.6 0.8-1.5 1.4-3 3.2-3.6 1.4-0.4 2.7-0.9 3.7 0.3 1 1.2 0 2.2-0.6 3.2-1.6 2.3-3 4.7-4.6 7.1-5.5 7.9-8.5 16.5-7.2 26.3 0.3 3 0.6 6.2-4.1 6.2-2.3 0-3.5-0.8-3.4-3.2 0-0.9-0.5-2-0.3-2.9 2.6-11.8-3.8-20.8-9.3-30.1-0.7-1.3-1.5-2.6-2.9-3.3-0.9-0.5-2.6-0.6-2.2-2.2 0.4-1.2 1.8-1.4 2.9-1.7 4.5-1.4 7.4 0.8 9.5 4.4 2.6 4.4 5.1 8.8 8.1 14.1z"/>
		<path id="&lt;Path&gt;" class="s10" d="m1011 662.8c0 4.8 0.1 9.6 0 14.5-0.2 3.7 1.7 5.1 5.1 5 4.8-0.2 9.8 0.1 12.4-5.4 0.2-0.7 1.4-1.4 1.9-1.3 1 0.3 1.1 1.5 1.2 2.5 0.3 4.5-2.3 7.6-7.1 7.8-5.6 0.2-11.3 0-16.9 0.1-3.9 0-4.2-2.5-4.2-5.4q0.2-13.7 0.3-27.4c0-2.7 0.3-5.5-3.3-6.4-1.2-0.2-1.7-1.5-0.4-2.1 2.7-1.1 5.8-2.1 8.7-1.3 3 0.7 2.2 3.7 2.3 5.9 0.1 4.5 0 9 0 13.5z"/>
		<path id="&lt;Path&gt;" class="s13" d="m730.7 663.1c0 5 0.1 10 0 15-0.1 2.9 1 4 4.1 4.1 5.4 0 10.8 0.5 13.3-6 0.5-1.3 1.9-1.4 2.6 0.1 1.7 3.4-1.9 9.6-5.7 9.7-5.8 0.1-11.6-0.1-17.4 0.1-3.6 0.1-4.6-1.6-4.5-4.9 0.1-9.3 0-18.6 0-27.9 0-2.6 0.6-5.4-2.9-6.5-0.8-0.3-1.6-1.3-0.6-1.9 2.6-1.5 5.7-1.6 8.6-1.4 2.7 0.2 2.5 2.7 2.5 4.7q0 7.4 0 14.9z"/>
		<path id="&lt;Path&gt;" class="s10" d="m1362.2 664.2c0.2 3.6 0.7 8.6 0.1 13.6-0.4 3.2 1.1 4.4 4.4 4.4 5.1-0.1 10.5 0.8 12.9-5.7 0.4-1 1.5-2.2 2.4-0.2 1.9 3.7-1.7 9.7-5.8 9.7-5.7 0.1-11.3-0.1-17 0-3.3 0.1-4.4-1.2-4.3-4.4 0.1-9.8 0-19.6 0-29.4 0-1.9 0.2-3.8-1.8-4.9-0.9-0.5-2.6-0.4-1.9-2.1 0.4-1.1 1.6-1.1 2.6-1.2 1.3-0.1 2.7-0.1 3.9-0.4 3.3-0.8 4.7 0.4 4.6 3.8-0.2 5.1-0.1 10.3-0.1 16.8z"/>
		<path id="&lt;Path&gt;" class="s12" d="m1241.8 664.7c0 5.6 0 11.3 0 17 0 2.9-0.6 5.1-4.3 5.2-4.1 0.1-3.5-2.6-3.6-5.1 0-9.4 0-18.9 0-28.4 0-2.6 0.7-5.4-2.9-6.6-1.1-0.3-1.4-1.7-0.1-2.1 2.9-1.2 6.1-2.1 9.1-1.2 2.6 0.8 1.8 3.7 1.8 5.7 0.1 5.2 0 10.3 0 15.5z"/>
		<path id="&lt;Path&gt;" class="s13" d="m1084.9 665q0 7.2 0 14.4c0 1.2 0 2.4-0.2 3.5-0.4 2.7-2.1 4-4.9 3.9-2.9-0.1-2.7-2.5-2.7-4.4-0.1-9.3 0-18.6-0.1-27.9 0-3 1.3-6.6-3.1-7.9-0.5-0.2-1.1-1.1-0.4-1.6 2.5-1.5 5.3-1.9 8.1-1.9 2.4 0.1 2.9 2.1 3 3.9 0.1 6 0 12 0 18q0.1 0 0.3 0z"/>
		<path id="&lt;Path&gt;" class="s9" d="m28.7 666.4c0 4.5 0.1 9 0 13.5 0 1.3 0 2.6-0.3 3.9-0.5 2.3-2.2 3.1-4.5 3.1-2.7 0-2.8-1.9-2.8-3.8 0-9.6 0.1-19.2 0-28.8 0-2.9 1.2-6.7-3.7-7.2-0.8-0.1-1-0.9-0.8-1.6 0.2-0.9 0.9-1.2 1.7-1.4 7-2 10.2 0.2 10.4 7.4 0.1 5 0 9.9 0 14.9z"/>
		<path id="&lt;Path&gt;" class="s3" d="m343.1 665.3q0 7.7 0 15.4c0 1 0.1 2.1-0.2 3-0.6 2.2-2.1 3.2-4.4 3.1-2.8 0-2.7-2-2.7-3.8-0.1-10.1 0-20.2-0.1-30.4 0-1.9 0.3-4.1-1.8-5.3-0.9-0.5-2.5-0.4-2-2.1 0.3-1.1 1.6-1 2.5-1.3 7.3-2 8.6-1 8.6 6.4q0.1 7.5 0 15 0.1 0 0.1 0z"/>
	</g>
</svg>